<mxfile host="app.diagrams.net" modified="2023-10-19T04:35:12.689Z" agent="Mozilla/5.0 (Windows NT 10.0; Win64; x64) AppleWebKit/537.36 (KHTML, like Gecko) Chrome/117.0.0.0 Safari/537.36 Edg/117.0.2045.43" version="22.0.4" etag="6VV2ijcix0ZirAcKdQyr" type="github">
  <diagram name="Page-1" id="OLy6QdThZ172JZjYRfWV">
    <mxGraphModel>
      <root>
        <mxCell id="0" />
        <mxCell id="1" parent="0" />
      </root>
    </mxGraphModel>
  </diagram>
</mxfile>
